<svg width="20" height="20" viewBox="0 0 20 20" fill="none" xmlns="http://www.w3.org/2000/svg">
<path d="M13.5 8.91063V7.92188C13.5 5.93125 11.8813 4.3125 9.89063 4.3125C7.9 4.3125 6.28125 5.93125 6.28125 7.92188V8.91063C5.625 8.9675 4.96875 9.58 4.96875 10.3259V14.2634C4.96875 15.0466 5.59437 15.6853 6.3775 15.6853H13.3775C14.1606 15.6853 14.8125 15.0466 14.8125 14.2634V10.3259C14.8125 9.58 14.1563 8.96531 13.5 8.91063V8.91063ZM13.7188 14.2634C13.7188 14.4406 13.5547 14.5916 13.3775 14.5916H6.3775C6.20031 14.5916 6.0625 14.4406 6.0625 14.2634V10.3259C6.0625 10.1488 6.20031 9.99781 6.3775 9.99781H7.375V7.91969C7.375 6.53281 8.50375 5.40406 9.89063 5.40406C11.2775 5.40406 12.4063 6.53281 12.4063 7.91969V8.90406H8.25V9.99781H13.3775C13.5547 9.99781 13.7188 10.1488 13.7188 10.3259V14.2634ZM9.89063 11.0916C8.95438 11.0916 8.51688 12.3363 9.34375 12.8831C9.34813 12.8875 9.35469 12.8919 9.35906 12.8963V13.7188H10.4222V12.8963C10.4222 12.8963 10.4331 12.8875 10.4375 12.8831C11.2644 12.3384 10.8269 11.0916 9.89063 11.0916Z" fill="#EA4335"/>
</svg>
