<svg width="19" height="16" viewBox="0 0 19 16" fill="none" xmlns="http://www.w3.org/2000/svg">
<path d="M13.615 6.85171V5.80843C13.615 3.70802 11.907 2 9.80659 2C7.70619 2 5.99816 3.70802 5.99816 5.80843V6.85171C5.30572 6.91172 4.61328 7.558 4.61328 8.34507V12.4997C4.61328 13.326 5.27341 14 6.09972 14H13.4858C14.3121 14 14.9999 13.326 14.9999 12.4997V8.34507C14.9999 7.558 14.3075 6.90941 13.615 6.85171V6.85171ZM13.8458 12.4997C13.8458 12.6867 13.6727 12.8459 13.4858 12.8459H6.09972C5.91276 12.8459 5.76735 12.6867 5.76735 12.4997V8.34507C5.76735 8.15811 5.91276 7.99885 6.09972 7.99885H7.15223V5.80612C7.15223 4.34276 8.34323 3.15176 9.80659 3.15176C11.27 3.15176 12.461 4.34276 12.461 5.80612V6.84478H8.07549V7.99885H13.4858C13.6727 7.99885 13.8458 8.15811 13.8458 8.34507V12.4997ZM9.80659 9.15292C8.81871 9.15292 8.35708 10.4663 9.22956 11.0433C9.23417 11.0479 9.2411 11.0525 9.24571 11.0571V11.925H10.3675V11.0571C10.3675 11.0571 10.379 11.0479 10.3836 11.0433C11.2561 10.4686 10.7945 9.15292 9.80659 9.15292Z" fill="#726862"/>
</svg>
