<svg width="41" height="18" viewBox="0 0 41 18" fill="none" xmlns="http://www.w3.org/2000/svg">
<path d="M10.46 0.599998C11.5959 0.600002 12.484 0.687673 13.124 0.86367L13.1475 1.1039C13.1474 1.75977 13.0439 2.31966 12.8359 2.78359C12.6279 2.94359 12.2996 3.07138 11.8516 3.16738L15.8604 15.0238L18.1396 15.3119C18.1396 15.9679 17.9559 16.6639 17.5879 17.3998H11.7559L11.54 16.0795C12.2119 15.8235 12.6524 15.6556 12.8604 15.5756L11.8994 12.8637H6.5C6.02 14.2877 5.76345 15.0321 5.73145 15.0961L7.3877 15.3119C7.38768 15.6478 7.32424 16.0398 7.19629 16.4877C7.06829 16.9197 6.94794 17.2238 6.83594 17.3998H1.00391L0.788086 16.0795C1.50782 15.7756 2.15561 15.5516 2.73145 15.4076L6.76367 3.07168C5.69179 2.91168 4.8838 2.70364 4.33984 2.44765C4.33985 1.98383 4.41176 1.57593 4.55566 1.22402C4.89166 1.11202 5.6762 0.984233 6.9082 0.840233C8.15612 0.680253 9.34003 0.599998 10.46 0.599998ZM25.9941 0.599998C28.0261 0.599998 29.5383 0.951712 30.5303 1.65566C31.5222 2.35962 32.0185 3.63969 32.0186 5.49551C32.0186 7.04751 31.5381 8.34418 30.5781 9.38418C29.6182 10.4079 28.0823 10.9202 25.9707 10.9203C25.2827 10.9203 24.7379 10.9119 24.3379 10.8959L24.29 15.1195L26.042 15.3119C26.042 16.0159 25.8582 16.7118 25.4902 17.3998H19.5625L19.3467 16.0795C20.1784 15.7436 20.8504 15.5122 21.3623 15.3842C21.3623 15.3362 21.2905 11.1039 21.1465 2.68789C20.8905 2.62389 20.2263 2.41587 19.1543 2.06387L19.3467 0.599998H25.9941ZM39.9668 0.599998C39.951 0.600108 39.9509 0.616005 39.9668 0.64785C39.9988 0.679822 40.0305 0.751837 40.0625 0.86367C40.1105 0.95967 40.159 1.08002 40.207 1.22402C40.303 1.47999 40.3674 1.90381 40.3994 2.49551C39.5835 2.6235 39.047 2.70373 38.791 2.73574L38.6709 15.0961L40.3271 15.3119C40.3271 15.9678 40.1433 16.6639 39.7754 17.3998H33.9434L33.7266 16.0795C34.6226 15.7115 35.2952 15.4802 35.7432 15.3842C35.7272 14.4402 35.7029 13.1118 35.6709 11.3998C35.6229 7.55986 35.5753 4.65588 35.5273 2.68789L33.5352 2.06387L33.7266 0.599998H39.9668ZM8.32422 7.60781L7.19629 10.6078H11.2041L10.0283 7.46328L9.33203 4.29531H9.0918L8.32422 7.60781ZM25.6348 2.97598C25.2028 2.97598 24.7942 2.98341 24.4102 2.99941C24.3782 5.52716 24.3623 7.41547 24.3623 8.66348L25.4658 8.64004C26.5376 8.62404 27.3699 8.32806 27.9619 7.75234C28.5539 7.17636 28.8506 6.43189 28.8506 5.51992C28.8506 4.60796 28.5866 3.95959 28.0586 3.57558C27.5467 3.17564 26.7385 2.97603 25.6348 2.97598Z" fill="#0057FF"/>
</svg>
