<svg width="20" height="20" viewBox="0 0 20 20" fill="none" xmlns="http://www.w3.org/2000/svg">
<path d="M15.4688 4.22187C12.8062 1.55937 9.45312 1.89062 9.8375 1.89062C7.7125 1.89062 5.7125 2.71562 4.20625 4.22187C2.70312 5.725 1.875 7.725 1.875 9.85312C1.875 14.2531 5.4375 17.8156 9.8375 17.8156C16.8594 17.8156 20.5063 9.2625 15.4688 4.225V4.22187ZM3.4875 10.625H6.2625C6.33125 12.1875 6.6375 14.2594 7.35938 15.7562C5.33125 14.9062 3.775 13.125 3.4875 10.625ZM6.2625 9.06875H3.4875C3.775 6.57187 5.33437 4.79375 7.35938 3.94375C6.6375 5.44062 6.33125 7.50625 6.2625 9.06875ZM9.8375 16.25C9.30937 16.25 8.77188 15.1375 8.57812 14.6406C8.15313 13.5562 7.89375 12.1844 7.82812 10.625H11.85C11.6937 14.3719 10.5094 16.25 9.8375 16.25ZM7.825 9.06875C7.98438 5.32187 9.17188 3.44687 9.8375 3.44687C10.5031 3.44687 11.525 3.6125 12.3187 3.94687V3.94062C13.7969 4.5625 15.0562 5.7875 15.7125 7.30625C15.7125 7.30625 15.7063 7.30625 15.7031 7.30625C15.9438 7.8625 16.1125 8.44375 16.1844 9.06562H13.4094C13.3625 7.81562 13.2031 6.74375 12.9469 5.74062C12.3781 5.30625 11.7188 4.99062 10.9969 4.825C11.55 6.09375 11.7844 7.81562 11.8438 9.06562H7.82188L7.825 9.06875ZM12.3156 15.7531C13.0375 14.2562 13.3437 12.1844 13.4125 10.6219H16.1875C15.9 13.1187 14.3406 14.9031 12.3156 15.7531Z" fill="#171614"/>
</svg>
