<svg width="29" height="28" viewBox="0 0 29 28" fill="none" xmlns="http://www.w3.org/2000/svg">
<path d="M14.5 0.5C21.9558 0.5 28 6.54416 28 14C28 21.4558 21.9558 27.5 14.5 27.5C7.04416 27.5 1 21.4558 1 14C1 6.54416 7.04416 0.5 14.5 0.5Z" fill="white"/>
<path d="M14.5 0.5C21.9558 0.5 28 6.54416 28 14C28 21.4558 21.9558 27.5 14.5 27.5C7.04416 27.5 1 21.4558 1 14C1 6.54416 7.04416 0.5 14.5 0.5Z" stroke="#CFC5B5"/>
<path d="M14.7568 19.8993C14.6593 19.9968 14.501 19.9967 14.4033 19.8993L8.68066 14.1766C8.58303 14.079 8.58303 13.9207 8.68066 13.8231L14.4033 8.10043C14.5008 8.00329 14.6583 8.00338 14.7559 8.10043L15.5303 8.87289C15.5773 8.91977 15.6045 8.98326 15.6045 9.04965C15.6045 9.11588 15.578 9.17953 15.5313 9.22641L11.5537 13.1991L20.1426 13.1991C20.2806 13.1991 20.3926 13.311 20.3926 13.4491L20.3926 14.5428C20.3924 14.6807 20.2805 14.7928 20.1426 14.7928L11.5547 14.7928L15.5313 18.7713C15.6287 18.8689 15.6286 19.0273 15.5313 19.1248L14.7568 19.8993Z" fill="#252420" stroke="#252420" stroke-width="0.5" stroke-linejoin="round"/>
</svg>
