<svg width="56" height="57" viewBox="0 0 56 57" fill="none" xmlns="http://www.w3.org/2000/svg">
<rect x="2" y="2.5" width="52" height="52" rx="26" fill="#2F2E2C"/>
<rect x="2" y="2.5" width="52" height="52" rx="26" stroke="#DBFF00" stroke-width="4"/>
<path d="M27.3125 34.6875H29.0312V31.25H32.4688V29.5312H27.3125V34.6875ZM20.0938 19.2188V37.7812H29.9284L35.5625 32.1231V19.2188H20.0938ZM33.8438 31.415L29.2134 36.0625H21.8125V20.9375H33.8438V31.415ZM25.7278 27.4412L26.4737 27.0116C26.625 27.1284 26.625 27.2247 26.9688 27.3003V28.1597H28.6875V27.3003C29.0312 27.2247 29.0312 27.1284 29.1825 27.0116L29.9284 27.4412L30.7878 25.9528L30.0419 25.5231C30.0694 25.3134 30.0694 25.1622 30.0419 24.9525L30.7878 24.5228L29.9284 23.0344L29.1825 23.4641C29.0312 23.3472 29.0312 23.2509 28.6875 23.1753V22.3159H26.9688V23.1753C26.625 23.2509 26.625 23.3472 26.4737 23.4641L25.7278 23.0344L24.8684 24.5228L25.6144 24.9525C25.5869 25.1656 25.5869 25.3134 25.6144 25.5231L24.8684 25.9528L25.7278 27.4412ZM27.6562 24.375C29.0312 24.375 29.0312 26.0938 27.6562 26.0938C26.625 26.0938 26.625 24.375 27.6562 24.375Z" fill="#DBFF00"/>
</svg>
