<svg width="26" height="26" viewBox="0 0 26 26" fill="none" xmlns="http://www.w3.org/2000/svg">
<path d="M7.60094 8.66938C7.89344 9.19751 8.46625 10.1522 9.01469 11.0622C9.40063 10.4284 9.83531 9.70938 10.2009 9.09188C9.85969 8.52313 9.555 8.00719 9.37219 7.67813C8.33625 5.82157 6.83719 4.87501 4.91156 4.87501H0.40625V6.90626H4.91156C6.09375 6.90626 6.9225 7.45469 7.59688 8.66938H7.60094ZM18.8216 15.9819L21.5109 18.6875H17.6272C16.445 18.6875 15.6162 18.1513 14.9419 16.9406C14.4341 16.0266 13.0894 13.8288 12.4638 12.8091C13.0894 11.7894 14.4341 9.58344 14.9419 8.66938C15.6162 7.45469 16.445 6.90626 17.6272 6.90626H21.5434L18.8216 9.64438L20.2597 11.0784L25.3988 5.91094L20.2597 0.73938L18.8216 2.17344L21.5109 4.87907H17.6272C15.7016 4.87907 14.1984 5.82563 13.1666 7.68219C12.5328 8.81969 10.4447 12.22 10.4081 12.2769C10.3188 12.4191 8.25906 15.7584 7.60094 16.9406C6.92656 18.1553 6.09781 18.6875 4.91563 18.6875H0.40625V20.7188H4.91156C6.83719 20.7188 8.34031 19.7844 9.37219 17.9278C9.74187 17.2656 10.6031 15.8397 11.2694 14.7509C11.9316 15.8397 12.7969 17.2656 13.1666 17.9278C14.1984 19.7844 15.7016 20.7188 17.6272 20.7188H21.5434L18.8216 23.4569L20.2597 24.8909L25.3988 19.7234L20.2597 14.5559L18.8216 15.99V15.9819Z" fill="#171614"/>
</svg>
