<svg width="26" height="26" viewBox="0 0 26 26" fill="none" xmlns="http://www.w3.org/2000/svg">
<g clip-path="url(#clip0_3432_115787)">
<path d="M13.8125 4.43625V0.40625H11.7812V4.43625C12.4962 4.37125 13.0975 4.37125 13.8125 4.43625ZM7.41 5.92312L4.46469 2.97781L3.02656 4.41594L5.915 7.30437C6.3375 6.7925 6.82094 6.34156 7.41 5.92719V5.92312ZM0 11.7812V13.8125H4.01375C3.95281 13.13 3.96906 12.4475 4.05844 11.7812H0ZM21.5353 11.7812C21.6206 12.4475 21.6409 13.13 21.58 13.8125H25.5938V11.7812H21.5353ZM12.7969 6.5C8.07625 6.5 5.78094 9.91656 6.13031 13.6662C6.32531 15.7625 7.0525 16.8634 7.86094 17.8953C8.23469 18.3747 8.53125 18.7484 8.53125 19.7234V23.3147L10.3878 24.4766L10.5544 24.8097C10.7981 25.2931 11.2856 25.5938 11.8259 25.5938H13.7597C14.3 25.5938 14.7875 25.2931 15.0312 24.8097L15.1978 24.4766L17.0584 23.3147V19.7234C17.0584 18.7891 17.3144 18.4194 17.7247 17.8953C18.5331 16.8634 19.2644 15.7666 19.4634 13.6703C19.7722 10.4163 17.9603 6.50406 12.7969 6.50406V6.5ZM17.4403 13.4794C17.2941 15.0394 16.8309 15.7463 16.1281 16.6441C15.7625 17.1113 15.4212 17.5987 15.2181 18.2853H12.1834V20.3166H15.0272V22.1894L13.6338 23.0587L13.3819 23.5666H12.1997L11.9437 23.0587L10.5544 22.1894V19.7234C10.5544 18.1797 10.0344 17.3834 9.45344 16.6441C8.75063 15.7463 8.29156 15.0434 8.14531 13.4794C7.89344 10.8144 9.35594 8.53125 12.7887 8.53125C16.2216 8.53125 17.6841 10.7981 17.4322 13.4794H17.4403ZM21.1291 2.97781L18.1837 5.92312C18.7687 6.33344 19.2481 6.78031 19.6787 7.30031L22.5631 4.41594L21.125 2.97781H21.1291Z" fill="#A19689"/>
</g>
<defs>
<clipPath id="clip0_3432_115787">
<rect width="26" height="26" fill="white"/>
</clipPath>
</defs>
</svg>
