<svg width="26" height="26" viewBox="0 0 26 26" fill="none" xmlns="http://www.w3.org/2000/svg">
<path d="M12.9873 8.85232C10.5863 8.85232 8.63323 10.7435 8.63323 13.0683C8.63323 15.393 10.5863 17.2842 12.9873 17.2842C15.3883 17.2842 17.3414 15.393 17.3414 13.0683C17.3414 10.7435 15.3883 8.85232 12.9873 8.85232V8.85232ZM12.9873 15.2766C11.7308 15.2766 10.7066 14.2849 10.7066 13.0683C10.7066 12.478 10.943 11.9239 11.3742 11.5064C11.8055 11.0888 12.3777 10.8599 12.9873 10.8599C14.2438 10.8599 15.268 11.8517 15.268 13.0683C15.268 14.2849 14.2438 15.2766 12.9873 15.2766V15.2766ZM22.7197 11.7513L22.3382 10.1452L23.7605 7.76019L20.7127 4.0863L17.9841 4.88934L16.4332 4.17464L15.3841 1.625H10.5076L9.45843 4.17464L7.90756 4.88934L5.17901 4.0863L2.13116 7.76019L3.55349 10.1452L3.17199 11.7513L0.8125 13.3052L1.90309 17.8945L4.72701 18.3081L5.79687 19.601L5.58953 22.3433L9.98921 24.375L12.0833 22.5079H13.8084L15.9025 24.375L20.3021 22.3393L20.0948 19.601L21.1647 18.3121L23.9886 17.8985L25.0792 13.3092L22.7197 11.7553V11.7513ZM22.2843 16.1118L20.0533 16.441L17.9634 18.9585L18.1292 21.1187L16.2715 21.9739L14.6128 20.4963H11.2706L9.61186 21.9739L7.75413 21.1147L7.92 18.9545L5.83004 16.437L3.5991 16.1118L3.14296 14.1925L5.0007 12.9679L5.74711 9.82399L4.62335 7.94489L5.90469 6.39905L8.06098 7.03345L11.0715 5.64419L11.9009 3.62857H13.9659L14.7953 5.64419L17.8058 7.03746L19.9621 6.39905L21.2434 7.94489L20.1197 9.82399L20.8661 12.9679L22.7238 14.1925L22.2677 16.1118H22.2843Z" fill="#A19689"/>
</svg>
