<svg width="48" height="49" viewBox="0 0 48 49" fill="none" xmlns="http://www.w3.org/2000/svg">
<rect y="0.125" width="48" height="48" rx="24" fill="#F1EEE9"/>
<path d="M32.7381 15.1875H18.9881C17.7575 15.1875 16.7812 16.1809 16.7812 17.415V20.055L13.6875 21.6706V23.6094L16.7812 21.9937V24.8022L15.7191 25.5584C15.7191 25.5584 16.0766 26.0672 16.7159 26.9541C17.0597 26.7066 21.1744 23.7331 22.3225 22.9391C23.1131 22.3891 24.0241 23.2656 23.3778 24.1697C22.7453 25.0566 19.9369 28.415 19.4969 28.9341C18.5309 30.0719 17.4653 30.6562 16.3241 30.6562H13.6875V32.375H16.3241C17.9912 32.375 19.5003 31.5913 20.8066 30.0513C21.3153 29.4497 22.1162 28.5938 22.8794 27.5625H24.2097L21.8894 31.3506C22.8244 31.9213 22.4222 31.6772 23.3572 32.2512L26.2241 27.5659H27.7606L25.4403 31.3541C26.3753 31.9247 25.9731 31.6806 26.9081 32.2547L29.775 27.5694H32.7381C33.9687 27.5694 35 26.5587 35 25.3281V17.415C35 16.1844 33.9687 15.1875 32.7381 15.1875V15.1875ZM33.2812 18.625H19.875V20.3438H33.2812V25.3212C33.2812 25.6066 33.0234 25.8438 32.7381 25.8438H24.2716C24.5088 25.5 24.6669 25.3281 24.7769 25.1734C25.5606 24.0769 25.4953 22.7259 24.6119 21.8219C23.7078 20.8937 22.4394 20.7769 21.3566 21.5263C21.0266 21.7566 19.875 22.6537 18.5 23.5681V17.415C18.5 17.1297 18.7028 16.9062 18.9881 16.9062H32.7381C33.0234 16.9062 33.2812 17.1297 33.2812 17.415V18.625Z" fill="#CFC5B5"/>
</svg>
