<svg width="48" height="48" viewBox="0 0 48 48" fill="none" xmlns="http://www.w3.org/2000/svg">
<rect width="48" height="48" rx="24" fill="#F1EEE9"/>
<path d="M19.875 24.3438H27.7812V22.625H19.875V24.3438ZM22.9688 29.1563H27.7812V27.4375H22.9688V29.1563ZM29.0428 14.3269L27.2622 13.6635L25.5434 14.3063L23.8247 13.6635L22.1059 14.3063L20.3872 13.6635L18.61 14.3269L16.0938 13.7528V33.3706L18.6684 34.3331L20.3872 33.6903L22.1059 34.3331L23.8247 33.6903L25.5434 34.3331L27.2622 33.6903L28.9844 34.3331L31.5659 33.3706V13.7494L29.0463 14.3235L29.0428 14.3269ZM29.8438 32.1778L28.9809 32.4975L27.2622 31.8547L25.5434 32.4975L23.8247 31.8547L22.1059 32.4975L20.3872 31.8547L18.6719 32.4975L17.8159 32.1778V15.9047L18.7338 16.1144L20.3906 15.4956L22.1094 16.1385L23.8281 15.4956L25.5469 16.1385L27.2656 15.4956L28.9259 16.1144L29.8472 15.9047V32.1778H29.8438ZM19.875 21.25H27.7812V19.5313H19.875V21.25Z" fill="#CFC5B5"/>
</svg>
