<svg width="56" height="57" viewBox="0 0 56 57" fill="none" xmlns="http://www.w3.org/2000/svg">
<rect x="2" y="2.5" width="52" height="52" rx="26" fill="#2F2E2C"/>
<rect x="2" y="2.5" width="52" height="52" rx="26" stroke="#DBFF00" stroke-width="4"/>
<path d="M33.1562 28.1562C30.6916 28.1562 28.6875 30.1603 28.6875 32.625C28.6875 35.0897 30.6916 37.0938 33.1562 37.0938C35.6209 37.0938 37.625 35.0897 37.625 32.625C37.625 30.1603 35.6209 28.1562 33.1562 28.1562ZM33.1562 35.375C31.6403 35.375 30.4062 34.1409 30.4062 32.625C30.4062 31.1091 31.6403 29.875 33.1562 29.875C34.6722 29.875 35.9062 31.1091 35.9062 32.625C35.9062 34.1409 34.6722 35.375 33.1562 35.375ZM33.5791 19.5625L20.2106 37.0938H22.3728L35.7413 19.5625H33.5791ZM27.3125 24.0312C27.3125 21.5666 25.3084 19.5625 22.8438 19.5625C20.3791 19.5625 18.375 21.5666 18.375 24.0312C18.375 26.4959 20.3791 28.5 22.8438 28.5C25.3084 28.5 27.3125 26.4959 27.3125 24.0312ZM20.0938 24.0312C20.0938 22.5153 21.3278 21.2812 22.8438 21.2812C24.3597 21.2812 25.5938 22.5153 25.5938 24.0312C25.5938 25.5472 24.3597 26.7812 22.8438 26.7812C21.3278 26.7812 20.0938 25.5472 20.0938 24.0312Z" fill="#DBFF00"/>
</svg>
