<svg width="26" height="26" viewBox="0 0 26 26" fill="none" xmlns="http://www.w3.org/2000/svg">
<path d="M13 5.68752C12.3256 5.68752 11.7812 6.2319 11.7812 6.90627C11.7812 7.58065 12.3256 8.12502 13 8.12502C13.6744 8.12502 14.2188 7.58065 14.2188 6.90627C14.2188 6.2319 13.6744 5.68752 13 5.68752ZM23.9688 11.375V6.87377L13 1.49908L2.03125 6.87377V11.375H4.0625V18.2813H2.03125V24.375H23.9688V18.2813H21.9375V11.375H23.9688ZM21.9375 22.3438H4.0625V20.3125H6.09375V11.375H9.34375V18.2813H7.71875V20.3125H11.375V11.375H14.625V18.2813H13V20.3125H16.6562V11.375H19.9062V18.2813H18.2812V20.3125H21.9375V22.3438ZM4.0625 9.34377V8.14127L13 3.7619L21.9375 8.14127V9.34377H4.0625Z" fill="#171614"/>
</svg>
