<svg width="20" height="20" viewBox="0 0 20 20" fill="none" xmlns="http://www.w3.org/2000/svg">
<path d="M15.4688 4.2219C12.8062 1.5594 9.45312 1.89065 9.8375 1.89065C7.7125 1.89065 5.7125 2.71565 4.20625 4.2219C2.70313 5.72503 1.875 7.72503 1.875 9.85315C1.875 14.2532 5.4375 17.8157 9.8375 17.8157C16.8594 17.8157 20.5063 9.26253 15.4688 4.22503V4.2219ZM3.4875 10.625H6.2625C6.33125 12.1875 6.6375 14.2594 7.35937 15.7563C5.33125 14.9063 3.775 13.125 3.4875 10.625V10.625ZM6.2625 9.06878H3.4875C3.775 6.5719 5.33437 4.79378 7.35937 3.94378C6.6375 5.44065 6.33125 7.50628 6.2625 9.06878ZM9.8375 16.25C9.30937 16.25 8.77188 15.1375 8.57813 14.6407C8.15313 13.5563 7.89375 12.1844 7.82812 10.625H11.85C11.6937 14.3719 10.5094 16.25 9.8375 16.25V16.25ZM7.825 9.06878C7.98438 5.3219 9.17187 3.4469 9.8375 3.4469C10.5031 3.4469 11.525 3.61253 12.3187 3.9469V3.94065C13.7969 4.56253 15.0562 5.78753 15.7125 7.30628C15.7125 7.30628 15.7062 7.30628 15.7031 7.30628C15.9437 7.86253 16.1125 8.44378 16.1844 9.06565H13.4094C13.3625 7.81565 13.2031 6.74378 12.9469 5.74065C12.3781 5.30628 11.7187 4.99065 10.9969 4.82503C11.55 6.09378 11.7844 7.81565 11.8438 9.06565H7.82188L7.825 9.06878ZM12.3156 15.7532C13.0375 14.2563 13.3437 12.1844 13.4125 10.6219H16.1875C15.9 13.1188 14.3406 14.9032 12.3156 15.7532Z" fill="#A19689"/>
</svg>
