<svg width="48" height="49" viewBox="0 0 48 49" fill="none" xmlns="http://www.w3.org/2000/svg">
<rect y="0.5" width="48" height="48" rx="24" fill="#F1EEE9"/>
<path d="M23.3125 30.6875H25.0312V27.25H28.4688V25.5312H23.3125V30.6875ZM16.0938 15.2188V33.7812H25.9284L31.5625 28.1231V15.2188H16.0938ZM29.8438 27.415L25.2134 32.0625H17.8125V16.9375H29.8438V27.415ZM21.7278 23.4412L22.4737 23.0116C22.625 23.1284 22.625 23.2247 22.9688 23.3003V24.1597H24.6875V23.3003C25.0312 23.2247 25.0312 23.1284 25.1825 23.0116L25.9284 23.4412L26.7878 21.9528L26.0419 21.5231C26.0694 21.3134 26.0694 21.1622 26.0419 20.9525L26.7878 20.5228L25.9284 19.0344L25.1825 19.4641C25.0312 19.3472 25.0312 19.2509 24.6875 19.1753V18.3159H22.9688V19.1753C22.625 19.2509 22.625 19.3472 22.4737 19.4641L21.7278 19.0344L20.8684 20.5228L21.6144 20.9525C21.5869 21.1656 21.5869 21.3134 21.6144 21.5231L20.8684 21.9528L21.7278 23.4412ZM23.6562 20.375C25.0312 20.375 25.0312 22.0938 23.6562 22.0938C22.625 22.0938 22.625 20.375 23.6562 20.375Z" fill="#CFC5B5"/>
</svg>
