<svg width="48" height="49" viewBox="0 0 48 49" fill="none" xmlns="http://www.w3.org/2000/svg">
<rect y="0.75" width="48" height="48" rx="24" fill="#F1EEE9"/>
<path d="M29.1562 24.4062C26.6916 24.4062 24.6875 26.4103 24.6875 28.875C24.6875 31.3397 26.6916 33.3438 29.1562 33.3438C31.6209 33.3438 33.625 31.3397 33.625 28.875C33.625 26.4103 31.6209 24.4062 29.1562 24.4062ZM29.1562 31.625C27.6403 31.625 26.4062 30.3909 26.4062 28.875C26.4062 27.3591 27.6403 26.125 29.1562 26.125C30.6722 26.125 31.9062 27.3591 31.9062 28.875C31.9062 30.3909 30.6722 31.625 29.1562 31.625ZM29.5791 15.8125L16.2106 33.3438H18.3728L31.7413 15.8125H29.5791V15.8125ZM23.3125 20.2812C23.3125 17.8166 21.3084 15.8125 18.8438 15.8125C16.3791 15.8125 14.375 17.8166 14.375 20.2812C14.375 22.7459 16.3791 24.75 18.8438 24.75C21.3084 24.75 23.3125 22.7459 23.3125 20.2812V20.2812ZM16.0938 20.2812C16.0938 18.7653 17.3278 17.5312 18.8438 17.5312C20.3597 17.5312 21.5938 18.7653 21.5938 20.2812C21.5938 21.7972 20.3597 23.0312 18.8438 23.0312C17.3278 23.0312 16.0938 21.7972 16.0938 20.2812Z" fill="#CFC5B5"/>
</svg>
