<svg width="20" height="20" viewBox="0 0 20 20" fill="none" xmlns="http://www.w3.org/2000/svg">
<path d="M0.7375 14.9749L0.625 16.253H2.19375C2.31563 15.003 1.84688 11.8905 8.37188 12.1874C8.53438 11.6312 8.76875 11.1624 9.05937 10.6999C5.25 10.3499 1.13438 11.203 0.7375 14.9749V14.9749ZM10.2813 8.5093C12.7313 5.9218 11.5531 1.24992 7.65312 1.24992C3.75313 1.24992 2.6 5.9468 5.025 8.5093C6.5125 10.0812 8.79063 10.0843 10.2813 8.5093ZM5.31875 4.9468C5.48438 2.09367 9.825 2.0968 9.99063 4.9468C10.0938 6.71555 8.95938 8.13117 7.65625 8.13117C6.35312 8.13117 5.21875 6.70305 5.32188 4.9468H5.31875ZM14.2188 9.06242C10.5219 9.06242 8.20625 13.0499 9.98125 16.2562C12.3937 20.6124 19.0594 18.8937 19.0594 13.9093C19.0594 11.2312 16.8906 9.0593 14.2188 9.0593V9.06242ZM14.1094 17.1905C11.8625 17.1155 10.3344 14.8374 11.1688 12.7124C12.4938 9.34055 17.5 10.3187 17.5 13.9124C17.5 15.7218 16.0125 17.2562 14.1094 17.1905V17.1905ZM15 11.5624H13.4375V13.1249H11.875V14.6874H13.4375V16.2499H15V14.6874H16.5625V13.1249H15V11.5624Z" fill="#4D4540"/>
</svg>
