<svg width="56" height="57" viewBox="0 0 56 57" fill="none" xmlns="http://www.w3.org/2000/svg">
<rect x="2" y="2.875" width="52" height="52" rx="26" fill="#2F2E2C"/>
<rect x="2" y="2.875" width="52" height="52" rx="26" stroke="#DBFF00" stroke-width="4"/>
<path d="M21.4688 22.3438V35.4062H31.4375V22.3438H29.7188V33.6875H23.1875V22.3438H21.4688ZM26.2228 29.5213C25.6281 29.5213 25.0884 29.3287 24.6931 29.1362L24.4044 30.3497C24.7447 30.525 25.3394 30.69 25.9513 30.7175V31.5288H26.9481V30.6384C27.9966 30.4563 28.5741 29.7825 28.5741 28.9712C28.5741 28.16 28.1719 27.6787 27.0719 27.3212C26.3397 27.06 26.0406 26.8916 26.0406 26.675C26.0406 26.4825 26.1988 26.3003 26.7144 26.3003C27.3778 26.3003 27.7972 26.4997 28.0344 26.5959L28.3128 25.4341C28.0069 25.3034 27.5978 25.1797 26.9928 25.1556V24.4234H25.9959V25.2278C24.9991 25.4272 24.4491 26.0563 24.4491 26.8538C24.4491 27.7372 25.1228 28.1806 26.0647 28.4866C26.7213 28.6859 26.9722 28.8544 26.9722 29.1225C26.9722 29.3906 26.6662 29.5247 26.2228 29.5247V29.5213ZM32.8125 36.7812H24.2188V38.5H34.5312V22.3438H32.8125V36.7812ZM35.3906 19.25H20.6094C19.3788 19.25 18.375 20.2538 18.375 21.4844V25.2656C18.375 26.3209 19.1106 27.2044 20.0938 27.4381V21.4844C20.0938 21.1991 20.3241 20.9688 20.6094 20.9688H35.3906C35.6759 20.9688 35.9062 21.1991 35.9062 21.4844V27.4381C36.8894 27.2044 37.625 26.3209 37.625 25.2656V21.4844C37.625 20.2538 36.6212 19.25 35.3906 19.25Z" fill="#DBFF00"/>
</svg>
