<svg width="16" height="16" viewBox="0 0 16 16" fill="none" xmlns="http://www.w3.org/2000/svg">
<path d="M11.6959 4.87689L10.8253 5.74743L12.4631 7.38523H8.3219C7.95303 6.64748 7.10954 5.20149 6.80214 4.65064C6.17751 3.52681 5.26517 2.95874 4.0946 2.95874H0.831299V4.18832H4.0946C4.81514 4.18832 5.32173 4.51785 5.73241 5.25314C6.04472 5.80891 6.89805 7.3508 7.25954 8.00248C6.89805 8.6517 6.04226 10.1936 5.73241 10.7494C5.31927 11.4846 4.81514 11.8117 4.0946 11.8117H0.831299V13.0413H4.0946C5.26517 13.0413 6.17751 12.4732 6.80706 11.3494C7.11445 10.7985 7.95795 9.35256 8.32682 8.61481H12.4828L10.8302 10.2674L11.7008 11.1379L14.8313 8.0074L11.7008 4.87689H11.6959Z" fill="#4D4540"/>
</svg>
