<svg width="20" height="20" viewBox="0 0 20 20" fill="none" xmlns="http://www.w3.org/2000/svg">
<path d="M10.9375 5.3125H9.375V10.7406L13.3438 13.1656L14.1594 11.8313L10.9406 9.8625V5.3125H10.9375ZM10.1562 2.1875C5.7625 2.1875 2.1875 5.7625 2.1875 10.1562C2.1875 14.55 5.7625 18.125 10.1562 18.125C12.2844 18.125 14.2875 17.2969 15.7906 15.7906C17.2969 14.2844 18.125 12.2844 18.125 10.1562C18.125 5.7625 14.55 2.1875 10.1562 2.1875ZM14.7312 14.7281C13.5094 15.95 11.8875 16.6219 10.1594 16.6219C6.59375 16.6219 3.69375 13.7219 3.69375 10.1531C3.69375 6.58437 6.59062 3.69062 10.1562 3.69062C13.7219 3.69062 16.625 6.59062 16.625 10.1562C16.625 11.8844 15.9531 13.5094 14.7312 14.7281Z" fill="#171614"/>
</svg>
