<svg width="48" height="49" viewBox="0 0 48 49" fill="none" xmlns="http://www.w3.org/2000/svg">
<rect y="0.75" width="48" height="48" rx="24" fill="#F1EEE9"/>
<path d="M17.4688 18.2188V31.2812H27.4375V18.2188H25.7188V29.5625H19.1875V18.2188H17.4688ZM22.2228 25.3963C21.6281 25.3963 21.0884 25.2037 20.6931 25.0112L20.4044 26.2247C20.7447 26.4 21.3394 26.565 21.9513 26.5925V27.4038H22.9481V26.5134C23.9966 26.3313 24.5741 25.6575 24.5741 24.8462C24.5741 24.035 24.1719 23.5538 23.0719 23.1962C22.3397 22.935 22.0406 22.7666 22.0406 22.55C22.0406 22.3575 22.1988 22.1753 22.7144 22.1753C23.3778 22.1753 23.7972 22.3747 24.0344 22.4709L24.3128 21.3091C24.0069 21.1784 23.5978 21.0547 22.9928 21.0306V20.2984H21.9959V21.1028C20.9991 21.3022 20.4491 21.9313 20.4491 22.7288C20.4491 23.6122 21.1228 24.0556 22.0647 24.3616C22.7213 24.5609 22.9722 24.7294 22.9722 24.9975C22.9722 25.2656 22.6663 25.3997 22.2228 25.3997V25.3963ZM28.8125 32.6562H20.2188V34.375H30.5312V18.2188H28.8125V32.6562ZM31.3906 15.125H16.6094C15.3788 15.125 14.375 16.1288 14.375 17.3594V21.1406C14.375 22.1959 15.1106 23.0794 16.0938 23.3131V17.3594C16.0938 17.0741 16.3241 16.8438 16.6094 16.8438H31.3906C31.6759 16.8438 31.9062 17.0741 31.9062 17.3594V23.3131C32.8894 23.0794 33.625 22.1959 33.625 21.1406V17.3594C33.625 16.1288 32.6213 15.125 31.3906 15.125Z" fill="#CFC5B5"/>
</svg>
