<svg width="16" height="16" viewBox="0 0 16 16" fill="none" xmlns="http://www.w3.org/2000/svg">
<path d="M7.31373 11.4314H8.68627V10.0588H7.31373V11.4314ZM8 1C6.13059 1 4.37098 1.72745 3.05059 3.05059C1.72745 4.37373 1 6.13059 1 8C1 11.8596 4.14039 15 8 15C9.86941 15 11.6263 14.2725 12.9494 12.9494C14.2698 11.6263 15 9.86941 15 8C15 4.14039 11.8596 1 8 1ZM12.0161 12.0161C10.9427 13.0894 9.51804 13.6796 8 13.6796C4.86784 13.6796 2.31765 11.1322 2.31765 8C2.31765 6.48196 2.90784 5.05451 3.98118 3.98392C5.05451 2.91059 6.48196 2.32039 7.99726 2.32039C11.1294 2.32039 13.6796 4.86784 13.6796 8.00275C13.6796 9.52078 13.0894 10.9455 12.0161 12.0188V12.0161ZM8.13726 4.29412C6.89098 4.29412 5.94118 5.11765 5.94118 6.4902H7.31373C7.31373 5.94118 7.58824 5.39216 8.13726 5.39216C8.68627 5.39216 9.01569 5.73255 8.9498 6.27882C8.85098 7.08863 7.31373 7.35216 7.31373 8.78784V9.23804H8.68627V8.96353C8.68627 7.97804 10.3333 7.64039 10.3333 6.21843C10.3333 5.12039 9.39726 4.29686 8.13726 4.29686V4.29412Z" fill="#E2DCD3"/>
</svg>
