<svg width="26" height="26" viewBox="0 0 26 26" fill="none" xmlns="http://www.w3.org/2000/svg">
<path d="M5.28125 5.28125V20.7188H17.0625V5.28125H15.0312V18.6875H7.3125V5.28125H5.28125ZM10.8997 13.7638C10.1969 13.7638 9.55906 13.5362 9.09187 13.3087L8.75063 14.7428C9.15281 14.95 9.85563 15.145 10.5788 15.1775V16.1363H11.7569V15.0841C12.9959 14.8688 13.6784 14.0725 13.6784 13.1137C13.6784 12.155 13.2031 11.5862 11.9031 11.1637C11.0378 10.855 10.6844 10.6559 10.6844 10.4C10.6844 10.1725 10.8713 9.95719 11.4806 9.95719C12.2647 9.95719 12.7603 10.1928 13.0406 10.3066L13.3697 8.93344C13.0081 8.77906 12.5247 8.63281 11.8097 8.60437V7.73906H10.6316V8.68969C9.45344 8.92531 8.80344 9.66875 8.80344 10.6112C8.80344 11.6553 9.59969 12.1794 10.7128 12.5409C11.4888 12.7766 11.7853 12.9756 11.7853 13.2925C11.7853 13.6094 11.4237 13.7678 10.8997 13.7678V13.7638ZM18.6875 22.3438H8.53125V24.375H20.7188V5.28125H18.6875V22.3438ZM21.7344 1.625H4.26562C2.81125 1.625 1.625 2.81125 1.625 4.26562V8.73438C1.625 9.98156 2.49438 11.0256 3.65625 11.3019V4.26562C3.65625 3.92844 3.92844 3.65625 4.26562 3.65625H21.7344C22.0716 3.65625 22.3438 3.92844 22.3438 4.26562V11.3019C23.5056 11.0256 24.375 9.98156 24.375 8.73438V4.26562C24.375 2.81125 23.1887 1.625 21.7344 1.625Z" fill="#171614"/>
</svg>
