<svg width="56" height="57" viewBox="0 0 56 57" fill="none" xmlns="http://www.w3.org/2000/svg">
<rect x="2" y="2.25" width="52" height="52" rx="26" fill="#2F2E2C"/>
<rect x="2" y="2.25" width="52" height="52" rx="26" stroke="#DBFF00" stroke-width="4"/>
<path d="M19.0625 18.2812V26.875H24.2806L25.2741 25.1562H20.7812V20H35.2188V25.1562H33.4691C33.3041 24.4688 33.0119 24.1422 32.6063 23.74L33.0566 22.9597C33.2937 22.5472 33.1528 22.0212 32.7403 21.7841C32.3278 21.5469 31.8019 21.6878 31.5647 22.0969L31.1178 22.8703C30.8222 22.7878 30.5162 22.75 30.2069 22.75C28.99 22.75 27.8625 23.4066 27.2644 24.4412C26.7488 25.335 22.9675 31.8834 22.3212 33.0006L21.6578 32.6156C21.4584 32.5022 21.3966 32.2375 21.5134 32.0312L23.3731 28.8103L21.8847 27.9509L20.025 31.1719C19.4372 32.1894 19.7981 33.5266 20.7984 34.1041L21.5547 34.5406C21.1491 35.9534 21.6819 37.5759 23.1462 38.425C24.7928 39.3737 26.8622 38.7791 27.7834 37.1841L33.17 27.8547C33.3522 27.5384 33.4759 27.2188 33.5481 26.875H36.9341V18.2812H19.0625ZM31.7434 26.8681C31.6334 27.1053 32.1044 26.2666 29.1791 31.3334L27.3022 30.2506L26.4428 31.7391L28.3197 32.8219L26.2984 36.3247C25.8653 37.0741 24.8684 37.435 23.985 36.9228C23.1841 36.4587 22.9091 35.4378 23.3731 34.6334C23.4694 34.4684 28.7494 25.3041 28.8628 25.1494C29.3337 24.51 30.2447 24.2247 31.0766 24.7059C31.8294 25.1425 32.1181 26.0809 31.7469 26.8681H31.7434Z" fill="#DBFF00"/>
</svg>
