<svg width="18" height="18" viewBox="0 0 18 18" fill="none" xmlns="http://www.w3.org/2000/svg">
<g clip-path="url(#clip0_3439_96136)">
<circle cx="9" cy="9" r="8.5" fill="#F9F7ED" stroke="#F1EEE9"/>
<path fill-rule="evenodd" clip-rule="evenodd" d="M4.53027 9.18399C4.53027 6.6134 6.61415 4.52953 9.18474 4.52953C11.7554 4.52953 13.8392 6.61341 13.8392 9.18399V9.59282C13.8392 10.5834 13.0362 11.3865 12.0455 11.3865C11.5106 11.3865 11.0303 11.1523 10.7017 10.7808C10.3067 11.1562 9.77261 11.3865 9.18474 11.3865C7.96844 11.3865 6.98238 10.4005 6.98238 9.18413C6.98238 7.96781 7.96843 6.98179 9.18474 6.98179C9.57191 6.98179 9.93574 7.08169 10.2519 7.25713V6.98179H11.3871V9.59282C11.3871 9.95647 11.6819 10.2513 12.0455 10.2513C12.4092 10.2513 12.704 9.95647 12.704 9.59282V9.18399C12.704 7.24038 11.1284 5.66476 9.18474 5.66476C7.24113 5.66476 5.66551 7.24038 5.66551 9.18399C5.66551 11.1276 7.24112 12.7032 9.18474 12.7032C9.9778 12.7032 10.7081 12.4416 11.2963 11.9997L11.7501 11.6587L12.432 12.5664L11.9782 12.9073C11.2001 13.4918 10.2321 13.8385 9.18474 13.8385C6.61415 13.8385 4.53027 11.7546 4.53027 9.18399ZM10.2519 9.18413C10.2519 8.59479 9.77409 8.11702 9.18474 8.11702C8.59539 8.11702 8.11762 8.59479 8.11762 9.18413C8.11762 9.77351 8.59539 10.2513 9.18474 10.2513C9.7741 10.2513 10.2519 9.77351 10.2519 9.18413Z" fill="#DBFF00"/>
<path fill-rule="evenodd" clip-rule="evenodd" d="M4.3418 8.99592C4.3418 6.42532 6.42567 4.34145 8.99627 4.34145C11.5669 4.34145 13.6507 6.42533 13.6507 8.99592V9.40474C13.6507 10.3954 12.8477 11.1984 11.8571 11.1984C11.3221 11.1984 10.8418 10.9642 10.5132 10.5927C10.1182 10.9681 9.58414 11.1984 8.99627 11.1984C7.77996 11.1984 6.79391 10.2124 6.79391 8.99605C6.79391 7.77973 7.77995 6.79371 8.99627 6.79371C9.38343 6.79371 9.74726 6.89361 10.0634 7.06905V6.79371H11.1986V9.40474C11.1986 9.7684 11.4934 10.0632 11.8571 10.0632C12.2207 10.0632 12.5155 9.7684 12.5155 9.40474V8.99592C12.5155 7.0523 10.9399 5.47668 8.99627 5.47668C7.05265 5.47668 5.47703 7.0523 5.47703 8.99592C5.47703 10.9395 7.05265 12.5151 8.99627 12.5151C9.78932 12.5151 10.5196 12.2535 11.1078 11.8116L11.5617 11.4706L12.2435 12.3783L11.7897 12.7192C11.0117 13.3037 10.0437 13.6504 8.99627 13.6504C6.42568 13.6504 4.3418 11.5665 4.3418 8.99592ZM10.0634 8.99605C10.0634 8.40671 9.58562 7.92894 8.99627 7.92894C8.40692 7.92894 7.92914 8.40671 7.92914 8.99605C7.92914 9.58543 8.40691 10.0632 8.99627 10.0632C9.58562 10.0632 10.0634 9.58543 10.0634 8.99605Z" fill="#4D4540"/>
</g>
<defs>
<clipPath id="clip0_3439_96136">
<rect width="18" height="18" fill="white"/>
</clipPath>
</defs>
</svg>
