<svg width="18" height="18" viewBox="0 0 18 18" fill="none" xmlns="http://www.w3.org/2000/svg">
<g clip-path="url(#clip0_3432_115849)">
<circle cx="9" cy="9" r="8.85938" fill="#F9F7ED" stroke="#F1EEE9" stroke-width="0.28125"/>
<path d="M7.37673 12.093C6.78716 12.093 6.27517 11.6606 6.27517 11.071V6.97893L7.59006 8.27637L8.28435 7.58983L5.81942 5.12102L3.35449 7.58983L4.02357 8.27637L5.30549 6.97893V11.0729C5.30549 12.1978 6.2519 13.0647 7.37673 13.0647H11.1216L10.1694 12.095H7.37673V12.093ZM14.1878 9.98882L12.8709 11.2882V7.19226C12.8709 6.06743 11.9944 5.11133 10.8695 5.11133H7.12267L8.0749 6.08101H10.8676C11.4571 6.08101 11.8993 6.60464 11.8993 7.19226V11.2843L10.6213 9.98882L9.94444 10.6754L12.4171 13.1442L14.8762 10.6754L14.1878 9.99076V9.98882Z" fill="#DBFF00"/>
<path d="M7.18825 11.905C6.59869 11.905 6.08669 11.4725 6.08669 10.8829V6.79088L7.40158 8.08832L8.09587 7.40178L5.63094 4.93298L3.16602 7.40178L3.8351 8.08832L5.11701 6.79088V10.8849C5.11701 12.0097 6.06342 12.8766 7.18825 12.8766H10.9332L9.98093 11.9069H7.18825V11.905ZM13.9993 9.80078L12.6825 11.1001V7.00421C12.6825 5.87938 11.8059 4.92328 10.681 4.92328H6.9342L7.88642 5.89296H10.6791C11.2687 5.89296 11.7108 6.41659 11.7108 7.00421V11.0963L10.4328 9.80078L9.75597 10.4873L12.2287 12.9561L14.6878 10.4873L13.9993 9.80271V9.80078Z" fill="#4D4540"/>
</g>
<defs>
<clipPath id="clip0_3432_115849">
<rect width="18" height="18" fill="white"/>
</clipPath>
</defs>
</svg>
