<svg width="40" height="40" viewBox="0 0 40 40" fill="none" xmlns="http://www.w3.org/2000/svg">
<mask id="path-1-inside-1_3440_113948" fill="white">
<path d="M0 8C0 3.58172 3.58172 0 8 0H32C36.4183 0 40 3.58172 40 8V32C40 36.4183 36.4183 40 32 40H8C3.58172 40 0 36.4183 0 32V8Z"/>
</mask>
<path d="M0 8C0 3.58172 3.58172 0 8 0H32C36.4183 0 40 3.58172 40 8V32C40 36.4183 36.4183 40 32 40H8C3.58172 40 0 36.4183 0 32V8Z" fill="white"/>
<path d="M8 0V1H32V0V-1H8V0ZM40 8H39V32H40H41V8H40ZM32 40V39H8V40V41H32V40ZM0 32H1V8H0H-1V32H0ZM8 40V39C4.13401 39 1 35.866 1 32H0H-1C-1 36.9706 3.02944 41 8 41V40ZM40 32H39C39 35.866 35.866 39 32 39V40V41C36.9706 41 41 36.9706 41 32H40ZM32 0V1C35.866 1 39 4.13401 39 8H40H41C41 3.02944 36.9706 -1 32 -1V0ZM8 0V-1C3.02944 -1 -1 3.02944 -1 8H0H1C1 4.13401 4.13401 1 8 1V0Z" fill="#A19689" mask="url(#path-1-inside-1_3440_113948)"/>
<path d="M22.8125 19.375H28.4375V13.75H26.875V16.6969C26.1594 15.975 25.35 15.1594 24.8625 14.6719C23.1688 12.9781 21.375 12.1875 19.2188 12.1875C14.9969 12.1875 11.5625 15.6219 11.5625 19.8438C11.5625 24.0656 14.9969 27.5 19.2188 27.5C23.175 27.5 26.4375 24.4812 26.8313 20.625H25.2563C24.8719 23.6156 22.3156 25.9375 19.2219 25.9375C15.8625 25.9375 13.1281 23.2031 13.1281 19.8438C13.1281 16.4844 15.8594 13.75 19.2188 13.75C20.9563 13.75 22.3562 14.375 23.7563 15.775C24.25 16.2687 25.0625 17.0875 25.7812 17.8125H22.8125V19.375Z" fill="#4D4540"/>
</svg>
