<svg width="52" height="46" viewBox="0 0 52 46" fill="none" xmlns="http://www.w3.org/2000/svg">
<path d="M0 8C0 3.58172 3.58172 0 8 0H44C48.4183 0 52 3.58172 52 8V38C52 42.4183 48.4183 46 44 46H8C3.58172 46 0 42.4183 0 38V8Z" fill="#171614"/>
<path d="M26.4064 32.3884C25.5573 32.3884 24.8342 31.8644 24.5295 31.125H22.4211C22.7827 32.9897 24.432 34.375 26.4064 34.375C28.3808 34.375 30.0302 32.9897 30.3917 31.125H28.2833C27.9786 31.8644 27.2514 32.3884 26.4064 32.3884V32.3884ZM37.3752 27.2534L37.042 26.9528C37.0014 26.9162 32.882 23.1016 32.4717 17.54L32.1467 13.0875L31.6836 12.8194C31.6023 12.7706 29.6077 11.625 26.5039 11.625H26.3536C23.2498 11.625 21.2633 12.7706 21.182 12.8194L20.723 13.0875L20.402 17.5359C19.9998 23.0934 15.8155 26.9041 15.7748 26.9406L15.4336 27.2453V29.5H37.3752V27.2494V27.2534ZM18.0945 27.4728C19.5327 25.8519 22.092 22.3541 22.4292 17.6903L22.6689 14.3225C23.3189 14.0503 24.623 13.6238 26.3577 13.6238H26.508C28.2427 13.6238 29.5548 14.0544 30.2048 14.3266L30.4486 17.6944C30.7898 22.3622 33.3167 25.86 34.7345 27.4769H18.0945V27.4728Z" fill="#A19689"/>
</svg>
