<svg width="20" height="20" viewBox="0 0 20 20" fill="none" xmlns="http://www.w3.org/2000/svg">
<path d="M10 3C8.13059 3 6.37098 3.72745 5.05059 5.05059C3.72745 6.37373 3 8.13059 3 10C3 13.8596 6.14039 17 10 17C11.8694 17 13.6263 16.2725 14.9494 14.9494C16.2698 13.6263 17 11.8694 17 10C17 6.14039 13.8596 3 10 3ZM14.0161 14.0161C12.9427 15.0894 11.518 15.6796 10 15.6796C6.86784 15.6796 4.31765 13.1322 4.31765 10C4.31765 8.48196 4.90784 7.05451 5.98118 5.98392C7.05451 4.91059 8.48196 4.32039 9.99726 4.32039C13.1294 4.32039 15.6796 6.86784 15.6796 10.0027C15.6796 11.5208 15.0894 12.9455 14.0161 14.0188V14.0161ZM9.31373 13.4314H10.6863V8.76471H9.31373V13.4314ZM9.31373 7.94118H10.6863V6.56863H9.31373V7.94118Z" fill="#4D4540"/>
</svg>
