<svg width="16" height="16" viewBox="0 0 16 16" fill="none" xmlns="http://www.w3.org/2000/svg">
<path d="M2.75039 9.75H4.00039V5.97C5.00039 6.935 4.70039 6.705 5.63289 7.685L6.53789 6.8225C5.48289 5.715 4.42539 4.6025 3.37539 3.5C2.16039 4.7775 1.42039 5.555 0.212891 6.8225L1.11789 7.685C2.28289 6.46 2.24789 6.605 2.74789 5.97V9.75H2.75039ZM11.7504 10V8.75H8.00039V12.5H9.25039V10H11.7504ZM2.75039 1.25V2.5H12.7504V10.12L9.38289 13.5H4.00039V10.75H2.75039V14.75H9.90289L14.0004 10.635V1.25H2.75039Z" fill="#4D4540"/>
</svg>
