<svg width="20" height="20" viewBox="0 0 20 20" fill="none" xmlns="http://www.w3.org/2000/svg">
<path d="M3.4375 12.1875H5V7.4625C6.25 8.66875 5.875 8.38125 7.04063 9.60625L8.17187 8.52813C6.85312 7.14375 5.53125 5.75312 4.21875 4.375C2.7 5.97188 1.775 6.94375 0.265625 8.52813L1.39687 9.60625C2.85312 8.075 2.80937 8.25625 3.43437 7.4625V12.1875H3.4375ZM14.6875 12.5V10.9375H10V15.625H11.5625V12.5H14.6875ZM3.4375 1.5625V3.125H15.9375V12.65L11.7281 16.875H5V13.4375H3.4375V18.4375H12.3781L17.5 13.2938V1.5625H3.4375Z" fill="#4D4540"/>
</svg>
