<svg width="21" height="20" viewBox="0 0 21 20" fill="none" xmlns="http://www.w3.org/2000/svg">
<g clip-path="url(#clip0_3439_96154)">
<path d="M3.9375 12.1875H5.5V7.4625C6.75 8.66875 6.375 8.38125 7.54063 9.60625L8.67187 8.52813C7.35312 7.14375 6.03125 5.75312 4.71875 4.375C3.2 5.97188 2.275 6.94375 0.765625 8.52813L1.89687 9.60625C3.35312 8.075 3.30937 8.25625 3.93437 7.4625V12.1875H3.9375ZM15.1875 12.5V10.9375H10.5V15.625H12.0625V12.5H15.1875ZM3.9375 1.5625V3.125H16.4375V12.65L12.2281 16.875H5.5V13.4375H3.9375V18.4375H12.8781L18 13.2938V1.5625H3.9375Z" fill="#F9F7ED"/>
</g>
<defs>
<clipPath id="clip0_3439_96154">
<rect width="20" height="20" fill="white" transform="translate(0.5)"/>
</clipPath>
</defs>
</svg>
